ffmpeg started on 2026-03-24 at 12:37:52
Report written to "D:\Convert\FFMetrics\reports\psnr_report-6.txt"
Log level: 32
Command line:
ffmpeg -hide_banner -nostdin -r 24000/1001 -i "F:\\\xc0\xed\xe8\xec\xe5\\LightFamily\\\xcc\xee\xe6\xe5\xf2 \xeb\xe8 \xf1\xf3\xf9\xe5\xf1\xf2\xe2\xee\xe2\xe0\xf2\xfc \xe4\xf0\xf3\xe6\xe1\xe0 \xec\xe5\xe6\xe4\xf3 \xec\xf3\xe6\xf7\xe8\xed\xee\xe9 \xe8 \xe6\xe5\xed\xf9\xe8\xed\xee\xe9 (\xcd\xe5\xf2, \xfd\xf2\xee \xed\xe5 \xf2\xe0\xea!)\\LightFamilyDUB_\xcc\xee\xe6\xe5\xf2_\xeb\xe8_\xf1\xf3\xf9\xe5\xf1\xf2\xe2\xee\xe2\xe0\xf2\xfc_\xe4\xf0\xf3\xe6\xe1\xe0_\xec\xe5\xe6\xe4\xf3_\xef\xe0\xf0\xed\xe5\xec_\xe8_\xe4\xe5\xe2\xf3\xf8\xea\xee\xe9_01_HEVC.mkv" -r 24000/1001 -i "F:\\\xc0\xed\xe8\xec\xe5\\LightFamily\\\xcc\xee\xe6\xe5\xf2 \xeb\xe8 \xf1\xf3\xf9\xe5\xf1\xf2\xe2\xee\xe2\xe0\xf2\xfc \xe4\xf0\xf3\xe6\xe1\xe0 \xec\xe5\xe6\xe4\xf3 \xec\xf3\xe6\xf7\xe8\xed\xee\xe9 \xe8 \xe6\xe5\xed\xf9\xe8\xed\xee\xe9 (\xcd\xe5\xf2, \xfd\xf2\xee \xed\xe5 \xf2\xe0\xea!)\\LightFamilyDUB_\xcc\xee\xe6\xe5\xf2_\xeb\xe8_\xf1\xf3\xf9\xe5\xf1\xf2\xe2\xee\xe2\xe0\xf2\xfc_\xe4\xf0\xf3\xe6\xe1\xe0_\xec\xe5\xe6\xe4\xf3_\xef\xe0\xf0\xed\xe5\xec_\xe8_\xe4\xe5\xe2\xf3\xf8\xea\xee\xe9_01.mp4" -lavfi "[0:v]settb=AVTB,setpts=PTS-STARTPTS,format=pix_fmts=yuv420p10le,fps=24000/1001,scale=1920:1080:flags=lanczos:param0=3:out_range=limited:out_color_matrix=bt709:out_chroma_loc=left,setsar=1/1,setdar=(1920/1080)*(1/1),colorspace=format=yuv420p10:range=tv:primaries=bt709:trc=bt709:space=bt709:fast=0[main];[1:v]settb=AVTB,setpts=PTS-STARTPTS,format=pix_fmts=yuv420p,fps=24000/1001,scale=1920:1080:flags=lanczos:param0=3:out_range=limited:out_color_matrix=bt709:out_chroma_loc=left,setsar=1/1,setdar=(1920/1080)*(1/1),colorspace=format=yuv420p:range=tv:primaries=bt709:trc=bt709:space=bt709:fast=0[ref];[main][ref]psnr=eof_action=endall:stats_file='D\\:/Convert/FFMetrics/logs/psnr_logfile-6.txt'" -f null -
Input #0, matroska,webm, from 'F:\Аниме\LightFamily\Может ли существовать дружба между мужчиной и женщиной (Нет, это не так!)\LightFamilyDUB_Может_ли_существовать_дружба_между_парнем_и_девушкой_01_HEVC.mkv':
  Metadata:
    COMPATIBLE_BRANDS: mp42mp41
    MAJOR_BRAND     : mp42
    MINOR_VERSION   : 0
    ENCODER         : Lavf61.7.100
  Duration: 00:23:49.95, start: -0.021000, bitrate: 889 kb/s
  Stream #0:0(eng): Video: hevc (Main 10), yuv420p10le(tv, bt709, progressive), 1920x1080 [SAR 1:1 DAR 16:9], 23.98 fps, 23.98 tbr, 1k tbn (default)
      Metadata:
        HANDLER_NAME    : Mainconcept Video Media Handler
        VENDOR_ID       : [0][0][0][0]
        ENCODER         : Lavc61.19.100 libx265
        BPS             : 692226
        DURATION        : 00:23:49.928708333
        NUMBER_OF_FRAMES: 34284
        NUMBER_OF_BYTES : 123729339
        _STATISTICS_WRITING_APP: mkvpropedit v94.0 ('Initiate') 64-bit
        _STATISTICS_WRITING_DATE_UTC: 2026-03-23 12:43:29
        _STATISTICS_TAGS: BPS DURATION NUMBER_OF_FRAMES NUMBER_OF_BYTES
  Stream #0:1(eng): Audio: aac (LC), 48000 Hz, stereo, fltp (default)
      Metadata:
        HANDLER_NAME    : #Mainconcept MP4 Sound Media Handler
        VENDOR_ID       : [0][0][0][0]
        ENCODER         : Lavc61.19.100 aac
        BPS             : 193159
        DURATION        : 00:23:49.930000000
        NUMBER_OF_FRAMES: 67029
        NUMBER_OF_BYTES : 34525588
        _STATISTICS_WRITING_APP: mkvpropedit v94.0 ('Initiate') 64-bit
        _STATISTICS_WRITING_DATE_UTC: 2026-03-23 12:43:29
        _STATISTICS_TAGS: BPS DURATION NUMBER_OF_FRAMES NUMBER_OF_BYTES
Input #1, mov,mp4,m4a,3gp,3g2,mj2, from 'F:\Аниме\LightFamily\Может ли существовать дружба между мужчиной и женщиной (Нет, это не так!)\LightFamilyDUB_Может_ли_существовать_дружба_между_парнем_и_девушкой_01.mp4':
  Metadata:
    major_brand     : mp42
    minor_version   : 0
    compatible_brands: mp42mp41
    creation_time   : 2025-04-05T06:42:34.000000Z
  Duration: 00:23:49.93, start: 0.000000, bitrate: 8387 kb/s
  Stream #1:0[0x1](eng): Video: h264 (Main) (avc1 / 0x31637661), yuv420p(tv, bt709, progressive), 1920x1080, 8001 kb/s, 23.98 fps, 23.98 tbr, 24k tbn (default)
      Metadata:
        creation_time   : 2025-04-05T06:42:34.000000Z
        handler_name    : Mainconcept Video Media Handler
        vendor_id       : [0][0][0][0]
        encoder         : AVC Coding
  Stream #1:1[0x2](eng): Audio: aac (LC) (mp4a / 0x6134706D), 48000 Hz, stereo, fltp, 381 kb/s (default)
      Metadata:
        creation_time   : 2025-04-05T06:42:34.000000Z
        handler_name    : #Mainconcept MP4 Sound Media Handler
        vendor_id       : [0][0][0][0]
Stream mapping:
  Stream #0:0 (hevc) -> settb:default
  Stream #1:0 (h264) -> settb:default
  psnr:default -> Stream #0:0 (wrapped_avframe)
  Stream #0:1 -> #0:1 (aac (native) -> pcm_s16le (native))
Output #0, null, to 'pipe:':
  Metadata:
    COMPATIBLE_BRANDS: mp42mp41
    MAJOR_BRAND     : mp42
    MINOR_VERSION   : 0
    encoder         : Lavf61.7.100
  Stream #0:0: Video: wrapped_avframe, yuv420p10le(tv, bt709, progressive), 1920x1080 [SAR 1:1 DAR 16:9], q=2-31, 200 kb/s, 23.98 fps, 23.98 tbn
      Metadata:
        encoder         : Lavc61.19.100 wrapped_avframe
  Stream #0:1(eng): Audio: pcm_s16le, 48000 Hz, stereo, s16, 1536 kb/s (default)
      Metadata:
        HANDLER_NAME    : #Mainconcept MP4 Sound Media Handler
        VENDOR_ID       : [0][0][0][0]
        _STATISTICS_TAGS: BPS DURATION NUMBER_OF_FRAMES NUMBER_OF_BYTES
        BPS             : 193159
        DURATION        : 00:23:49.930000000
        NUMBER_OF_FRAMES: 67029
        NUMBER_OF_BYTES : 34525588
        _STATISTICS_WRITING_APP: mkvpropedit v94.0 ('Initiate') 64-bit
        _STATISTICS_WRITING_DATE_UTC: 2026-03-23 12:43:29
        encoder         : Lavc61.19.100 pcm_s16le
frame=   67 fps=0.0 q=-0.0 size=N/A time=00:00:02.79 bitrate=N/A speed=5.48x    frame=  182 fps=178 q=-0.0 size=N/A time=00:00:07.59 bitrate=N/A speed=7.44x    frame=  360 fps=233 q=-0.0 size=N/A time=00:00:15.01 bitrate=N/A speed= 9.7x    frame=  556 fps=270 q=-0.0 size=N/A time=00:00:23.18 bitrate=N/A speed=11.3x    frame=  756 fps=294 q=-0.0 size=N/A time=00:00:31.53 bitrate=N/A speed=12.3x    frame=  957 fps=309 q=-0.0 size=N/A time=00:00:39.91 bitrate=N/A speed=12.9x    frame= 1145 fps=317 q=-0.0 size=N/A time=00:00:47.75 bitrate=N/A speed=13.2x    frame= 1321 fps=320 q=-0.0 size=N/A time=00:00:55.09 bitrate=N/A speed=13.4x    frame= 1510 fps=326 q=-0.0 size=N/A time=00:01:02.97 bitrate=N/A speed=13.6x    frame= 1707 fps=331 q=-0.0 size=N/A time=00:01:11.19 bitrate=N/A speed=13.8x    frame= 1895 fps=333 q=-0.0 size=N/A time=00:01:19.03 bitrate=N/A speed=13.9x    frame= 2089 fps=337 q=-0.0 size=N/A time=00:01:27.12 bitrate=N/A speed=14.1x    frame= 2286 fps=341 q=-0.0 size=N/A time=00:01:35.34 bitrate=N/A speed=14.2x    frame= 2486 fps=343 q=-0.0 size=N/A time=00:01:43.68 bitrate=N/A speed=14.3x    frame= 2694 fps=347 q=-0.0 size=N/A time=00:01:52.36 bitrate=N/A speed=14.5x    frame= 2875 fps=348 q=-0.0 size=N/A time=00:01:59.91 bitrate=N/A speed=14.5x    frame= 3077 fps=350 q=-0.0 size=N/A time=00:02:08.33 bitrate=N/A speed=14.6x    frame= 3286 fps=353 q=-0.0 size=N/A time=00:02:17.05 bitrate=N/A speed=14.7x    frame= 3472 fps=353 q=-0.0 size=N/A time=00:02:24.81 bitrate=N/A speed=14.7x    frame= 3662 fps=354 q=-0.0 size=N/A time=00:02:32.73 bitrate=N/A speed=14.8x    frame= 3875 fps=357 q=-0.0 size=N/A time=00:02:41.61 bitrate=N/A speed=14.9x    frame= 4074 fps=358 q=-0.0 size=N/A time=00:02:49.91 bitrate=N/A speed=14.9x    frame= 4264 fps=359 q=-0.0 size=N/A time=00:02:57.84 bitrate=N/A speed=  15x    frame= 4457 fps=359 q=-0.0 size=N/A time=00:03:05.89 bitrate=N/A speed=  15x    frame= 4661 fps=361 q=-0.0 size=N/A time=00:03:14.40 bitrate=N/A speed=  15x    frame= 4859 fps=362 q=-0.0 size=N/A time=00:03:22.66 bitrate=N/A speed=15.1x    frame= 5051 fps=362 q=-0.0 size=N/A time=00:03:30.66 bitrate=N/A speed=15.1x    frame= 5244 fps=363 q=-0.0 size=N/A time=00:03:38.71 bitrate=N/A speed=15.1x    frame= 5444 fps=363 q=-0.0 size=N/A time=00:03:47.06 bitrate=N/A speed=15.2x    frame= 5640 fps=364 q=-0.0 size=N/A time=00:03:55.23 bitrate=N/A speed=15.2x    frame= 5830 fps=364 q=-0.0 size=N/A time=00:04:03.15 bitrate=N/A speed=15.2x    frame= 6023 fps=365 q=-0.0 size=N/A time=00:04:11.20 bitrate=N/A speed=15.2x    frame= 6216 fps=365 q=-0.0 size=N/A time=00:04:19.25 bitrate=N/A speed=15.2x    frame= 6402 fps=365 q=-0.0 size=N/A time=00:04:27.01 bitrate=N/A speed=15.2x    frame= 6587 fps=364 q=-0.0 size=N/A time=00:04:34.73 bitrate=N/A speed=15.2x    frame= 6769 fps=364 q=-0.0 size=N/A time=00:04:42.32 bitrate=N/A speed=15.2x    frame= 6962 fps=364 q=-0.0 size=N/A time=00:04:50.37 bitrate=N/A speed=15.2x    frame= 7151 fps=364 q=-0.0 size=N/A time=00:04:58.25 bitrate=N/A speed=15.2x    frame= 7345 fps=365 q=-0.0 size=N/A time=00:05:06.34 bitrate=N/A speed=15.2x    frame= 7513 fps=364 q=-0.0 size=N/A time=00:05:13.35 bitrate=N/A speed=15.2x    frame= 7697 fps=363 q=-0.0 size=N/A time=00:05:21.02 bitrate=N/A speed=15.2x    frame= 7894 fps=364 q=-0.0 size=N/A time=00:05:29.24 bitrate=N/A speed=15.2x    frame= 8092 fps=365 q=-0.0 size=N/A time=00:05:37.50 bitrate=N/A speed=15.2x    frame= 8295 fps=365 q=-0.0 size=N/A time=00:05:45.97 bitrate=N/A speed=15.2x    frame= 8484 fps=365 q=-0.0 size=N/A time=00:05:53.85 bitrate=N/A speed=15.2x    frame= 8684 fps=366 q=-0.0 size=N/A time=00:06:02.19 bitrate=N/A speed=15.3x    frame= 8879 fps=366 q=-0.0 size=N/A time=00:06:10.32 bitrate=N/A speed=15.3x    frame= 9057 fps=365 q=-0.0 size=N/A time=00:06:17.75 bitrate=N/A speed=15.2x    frame= 9242 fps=365 q=-0.0 size=N/A time=00:06:25.46 bitrate=N/A speed=15.2x    frame= 9432 fps=365 q=-0.0 size=N/A time=00:06:33.39 bitrate=N/A speed=15.2x    frame= 9605 fps=365 q=-0.0 size=N/A time=00:06:40.60 bitrate=N/A speed=15.2x    frame= 9793 fps=365 q=-0.0 size=N/A time=00:06:48.44 bitrate=N/A speed=15.2x    frame= 9986 fps=365 q=-0.0 size=N/A time=00:06:56.49 bitrate=N/A speed=15.2x    frame=10180 fps=365 q=-0.0 size=N/A time=00:07:04.59 bitrate=N/A speed=15.2x    frame=10378 fps=366 q=-0.0 size=N/A time=00:07:12.84 bitrate=N/A speed=15.2x    frame=10574 fps=366 q=-0.0 size=N/A time=00:07:21.02 bitrate=N/A speed=15.3x    frame=10768 fps=366 q=-0.0 size=N/A time=00:07:29.11 bitrate=N/A speed=15.3x    frame=10972 fps=366 q=-0.0 size=N/A time=00:07:37.62 bitrate=N/A speed=15.3x    frame=11175 fps=367 q=-0.0 size=N/A time=00:07:46.09 bitrate=N/A speed=15.3x    frame=11374 fps=367 q=-0.0 size=N/A time=00:07:54.39 bitrate=N/A speed=15.3x    frame=11553 fps=367 q=-0.0 size=N/A time=00:08:01.85 bitrate=N/A speed=15.3x    frame=11751 fps=367 q=-0.0 size=N/A time=00:08:10.11 bitrate=N/A speed=15.3x    frame=11944 fps=367 q=-0.0 size=N/A time=00:08:18.16 bitrate=N/A speed=15.3x    frame=12129 fps=367 q=-0.0 size=N/A time=00:08:25.88 bitrate=N/A speed=15.3x    frame=12319 fps=367 q=-0.0 size=N/A time=00:08:33.80 bitrate=N/A speed=15.3x    frame=12511 fps=367 q=-0.0 size=N/A time=00:08:41.81 bitrate=N/A speed=15.3x    frame=12689 fps=367 q=-0.0 size=N/A time=00:08:49.23 bitrate=N/A speed=15.3x    frame=12871 fps=367 q=-0.0 size=N/A time=00:08:56.82 bitrate=N/A speed=15.3x    frame=13071 fps=367 q=-0.0 size=N/A time=00:09:05.16 bitrate=N/A speed=15.3x    frame=13254 fps=367 q=-0.0 size=N/A time=00:09:12.80 bitrate=N/A speed=15.3x    frame=13430 fps=367 q=-0.0 size=N/A time=00:09:20.14 bitrate=N/A speed=15.3x    frame=13618 fps=367 q=-0.0 size=N/A time=00:09:27.98 bitrate=N/A speed=15.3x    frame=13819 fps=367 q=-0.0 size=N/A time=00:09:36.36 bitrate=N/A speed=15.3x    frame=14000 fps=367 q=-0.0 size=N/A time=00:09:43.91 bitrate=N/A speed=15.3x    frame=14177 fps=366 q=-0.0 size=N/A time=00:09:51.29 bitrate=N/A speed=15.3x    frame=14361 fps=366 q=-0.0 size=N/A time=00:09:58.97 bitrate=N/A speed=15.3x    frame=14545 fps=366 q=-0.0 size=N/A time=00:10:06.64 bitrate=N/A speed=15.3x    frame=14723 fps=366 q=-0.0 size=N/A time=00:10:14.07 bitrate=N/A speed=15.3x    frame=14903 fps=366 q=-0.0 size=N/A time=00:10:21.57 bitrate=N/A speed=15.2x    frame=15083 fps=365 q=-0.0 size=N/A time=00:10:29.08 bitrate=N/A speed=15.2x    frame=15262 fps=365 q=-0.0 size=N/A time=00:10:36.55 bitrate=N/A speed=15.2x    frame=15463 fps=365 q=-0.0 size=N/A time=00:10:44.93 bitrate=N/A speed=15.2x    frame=15648 fps=365 q=-0.0 size=N/A time=00:10:52.65 bitrate=N/A speed=15.2x    frame=15833 fps=365 q=-0.0 size=N/A time=00:11:00.36 bitrate=N/A speed=15.2x    frame=16021 fps=365 q=-0.0 size=N/A time=00:11:08.20 bitrate=N/A speed=15.2x    frame=16212 fps=365 q=-0.0 size=N/A time=00:11:16.17 bitrate=N/A speed=15.2x    frame=16397 fps=365 q=-0.0 size=N/A time=00:11:23.89 bitrate=N/A speed=15.2x    frame=16584 fps=365 q=-0.0 size=N/A time=00:11:31.69 bitrate=N/A speed=15.2x    frame=16762 fps=365 q=-0.0 size=N/A time=00:11:39.11 bitrate=N/A speed=15.2x    frame=16946 fps=365 q=-0.0 size=N/A time=00:11:46.78 bitrate=N/A speed=15.2x    frame=17132 fps=365 q=-0.0 size=N/A time=00:11:54.54 bitrate=N/A speed=15.2x    frame=17300 fps=365 q=-0.0 size=N/A time=00:12:01.55 bitrate=N/A speed=15.2x    frame=17485 fps=364 q=-0.0 size=N/A time=00:12:09.27 bitrate=N/A speed=15.2x    frame=17671 fps=364 q=-0.0 size=N/A time=00:12:17.02 bitrate=N/A speed=15.2x    frame=17865 fps=364 q=-0.0 size=N/A time=00:12:25.11 bitrate=N/A speed=15.2x    frame=18062 fps=365 q=-0.0 size=N/A time=00:12:33.33 bitrate=N/A speed=15.2x    frame=18254 fps=365 q=-0.0 size=N/A time=00:12:41.34 bitrate=N/A speed=15.2x    frame=18456 fps=365 q=-0.0 size=N/A time=00:12:49.76 bitrate=N/A speed=15.2x    frame=18651 fps=365 q=-0.0 size=N/A time=00:12:57.90 bitrate=N/A speed=15.2x    frame=18840 fps=365 q=-0.0 size=N/A time=00:13:05.78 bitrate=N/A speed=15.2x    frame=19039 fps=365 q=-0.0 size=N/A time=00:13:14.08 bitrate=N/A speed=15.2x    frame=19237 fps=366 q=-0.0 size=N/A time=00:13:22.34 bitrate=N/A speed=15.2x    frame=19420 fps=365 q=-0.0 size=N/A time=00:13:29.97 bitrate=N/A speed=15.2x    frame=19623 fps=366 q=-0.0 size=N/A time=00:13:38.44 bitrate=N/A speed=15.3x    frame=19815 fps=366 q=-0.0 size=N/A time=00:13:46.45 bitrate=N/A speed=15.3x    frame=20023 fps=366 q=-0.0 size=N/A time=00:13:55.12 bitrate=N/A speed=15.3x    frame=20204 fps=366 q=-0.0 size=N/A time=00:14:02.67 bitrate=N/A speed=15.3x    frame=20384 fps=366 q=-0.0 size=N/A time=00:14:10.18 bitrate=N/A speed=15.3x    frame=20571 fps=366 q=-0.0 size=N/A time=00:14:17.98 bitrate=N/A speed=15.3x    frame=20765 fps=366 q=-0.0 size=N/A time=00:14:26.07 bitrate=N/A speed=15.3x    frame=20960 fps=366 q=-0.0 size=N/A time=00:14:34.20 bitrate=N/A speed=15.3x    frame=21150 fps=366 q=-0.0 size=N/A time=00:14:42.13 bitrate=N/A speed=15.3x    frame=21356 fps=366 q=-0.0 size=N/A time=00:14:50.72 bitrate=N/A speed=15.3x    frame=21534 fps=366 q=-0.0 size=N/A time=00:14:58.14 bitrate=N/A speed=15.3x    frame=21729 fps=366 q=-0.0 size=N/A time=00:15:06.28 bitrate=N/A speed=15.3x    frame=21934 fps=367 q=-0.0 size=N/A time=00:15:14.83 bitrate=N/A speed=15.3x    frame=22131 fps=367 q=-0.0 size=N/A time=00:15:23.04 bitrate=N/A speed=15.3x    frame=22322 fps=367 q=-0.0 size=N/A time=00:15:31.01 bitrate=N/A speed=15.3x    frame=22515 fps=367 q=-0.0 size=N/A time=00:15:39.06 bitrate=N/A speed=15.3x    frame=22712 fps=367 q=-0.0 size=N/A time=00:15:47.27 bitrate=N/A speed=15.3x    frame=22908 fps=367 q=-0.0 size=N/A time=00:15:55.45 bitrate=N/A speed=15.3x    frame=23109 fps=367 q=-0.0 size=N/A time=00:16:03.83 bitrate=N/A speed=15.3x    frame=23297 fps=367 q=-0.0 size=N/A time=00:16:11.67 bitrate=N/A speed=15.3x    frame=23492 fps=367 q=-0.0 size=N/A time=00:16:19.81 bitrate=N/A speed=15.3x    frame=23687 fps=367 q=-0.0 size=N/A time=00:16:27.94 bitrate=N/A speed=15.3x    frame=23876 fps=367 q=-0.0 size=N/A time=00:16:35.82 bitrate=N/A speed=15.3x    frame=24069 fps=367 q=-0.0 size=N/A time=00:16:43.87 bitrate=N/A speed=15.3x    frame=24256 fps=367 q=-0.0 size=N/A time=00:16:51.67 bitrate=N/A speed=15.3x    frame=24452 fps=367 q=-0.0 size=N/A time=00:16:59.85 bitrate=N/A speed=15.3x    frame=24638 fps=367 q=-0.0 size=N/A time=00:17:07.60 bitrate=N/A speed=15.3x    frame=24832 fps=368 q=-0.0 size=N/A time=00:17:15.70 bitrate=N/A speed=15.3x    frame=25024 fps=367 q=-0.0 size=N/A time=00:17:23.70 bitrate=N/A speed=15.3x    frame=25212 fps=367 q=-0.0 size=N/A time=00:17:31.55 bitrate=N/A speed=15.3x    frame=25407 fps=368 q=-0.0 size=N/A time=00:17:39.68 bitrate=N/A speed=15.3x    frame=25584 fps=367 q=-0.0 size=N/A time=00:17:47.06 bitrate=N/A speed=15.3x    frame=25774 fps=367 q=-0.0 size=N/A time=00:17:54.99 bitrate=N/A speed=15.3x    frame=25966 fps=367 q=-0.0 size=N/A time=00:18:02.99 bitrate=N/A speed=15.3x    frame=26145 fps=367 q=-0.0 size=N/A time=00:18:10.46 bitrate=N/A speed=15.3x    frame=26338 fps=367 q=-0.0 size=N/A time=00:18:18.51 bitrate=N/A speed=15.3x    frame=26532 fps=367 q=-0.0 size=N/A time=00:18:26.60 bitrate=N/A speed=15.3x    frame=26712 fps=367 q=-0.0 size=N/A time=00:18:34.11 bitrate=N/A speed=15.3x    frame=26903 fps=367 q=-0.0 size=N/A time=00:18:42.07 bitrate=N/A speed=15.3x    frame=27088 fps=367 q=-0.0 size=N/A time=00:18:49.79 bitrate=N/A speed=15.3x    frame=27248 fps=367 q=-0.0 size=N/A time=00:18:56.46 bitrate=N/A speed=15.3x    frame=27432 fps=367 q=-0.0 size=N/A time=00:19:04.14 bitrate=N/A speed=15.3x    frame=27626 fps=367 q=-0.0 size=N/A time=00:19:12.23 bitrate=N/A speed=15.3x    frame=27821 fps=367 q=-0.0 size=N/A time=00:19:20.36 bitrate=N/A speed=15.3x    frame=28008 fps=367 q=-0.0 size=N/A time=00:19:28.16 bitrate=N/A speed=15.3x    frame=28197 fps=367 q=-0.0 size=N/A time=00:19:36.04 bitrate=N/A speed=15.3x    frame=28393 fps=367 q=-0.0 size=N/A time=00:19:44.22 bitrate=N/A speed=15.3x    frame=28588 fps=367 q=-0.0 size=N/A time=00:19:52.35 bitrate=N/A speed=15.3x    frame=28776 fps=367 q=-0.0 size=N/A time=00:20:00.19 bitrate=N/A speed=15.3x    frame=28976 fps=367 q=-0.0 size=N/A time=00:20:08.54 bitrate=N/A speed=15.3x    frame=29176 fps=367 q=-0.0 size=N/A time=00:20:16.88 bitrate=N/A speed=15.3x    frame=29375 fps=367 q=-0.0 size=N/A time=00:20:25.18 bitrate=N/A speed=15.3x    frame=29572 fps=368 q=-0.0 size=N/A time=00:20:33.39 bitrate=N/A speed=15.3x    frame=29767 fps=368 q=-0.0 size=N/A time=00:20:41.53 bitrate=N/A speed=15.3x    frame=29959 fps=368 q=-0.0 size=N/A time=00:20:49.53 bitrate=N/A speed=15.3x    frame=30159 fps=368 q=-0.0 size=N/A time=00:20:57.88 bitrate=N/A speed=15.3x    frame=30343 fps=368 q=-0.0 size=N/A time=00:21:05.55 bitrate=N/A speed=15.3x    frame=30544 fps=368 q=-0.0 size=N/A time=00:21:13.93 bitrate=N/A speed=15.3x    frame=30735 fps=368 q=-0.0 size=N/A time=00:21:21.90 bitrate=N/A speed=15.3x    frame=30927 fps=368 q=-0.0 size=N/A time=00:21:29.91 bitrate=N/A speed=15.3x    frame=31128 fps=368 q=-0.0 size=N/A time=00:21:38.29 bitrate=N/A speed=15.3x    frame=31307 fps=368 q=-0.0 size=N/A time=00:21:45.76 bitrate=N/A speed=15.3x    frame=31506 fps=368 q=-0.0 size=N/A time=00:21:54.06 bitrate=N/A speed=15.3x    frame=31687 fps=368 q=-0.0 size=N/A time=00:22:01.61 bitrate=N/A speed=15.3x    frame=31877 fps=368 q=-0.0 size=N/A time=00:22:09.53 bitrate=N/A speed=15.3x    frame=32055 fps=368 q=-0.0 size=N/A time=00:22:16.96 bitrate=N/A speed=15.3x    frame=32221 fps=367 q=-0.0 size=N/A time=00:22:23.88 bitrate=N/A speed=15.3x    frame=32372 fps=367 q=-0.0 size=N/A time=00:22:30.18 bitrate=N/A speed=15.3x    frame=32537 fps=367 q=-0.0 size=N/A time=00:22:37.06 bitrate=N/A speed=15.3x    frame=32721 fps=367 q=-0.0 size=N/A time=00:22:44.73 bitrate=N/A speed=15.3x    frame=32903 fps=367 q=-0.0 size=N/A time=00:22:52.32 bitrate=N/A speed=15.3x    frame=33059 fps=366 q=-0.0 size=N/A time=00:22:58.83 bitrate=N/A speed=15.3x    frame=33229 fps=366 q=-0.0 size=N/A time=00:23:05.92 bitrate=N/A speed=15.3x    frame=33396 fps=366 q=-0.0 size=N/A time=00:23:12.89 bitrate=N/A speed=15.3x    frame=33548 fps=365 q=-0.0 size=N/A time=00:23:19.23 bitrate=N/A speed=15.2x    frame=33711 fps=365 q=-0.0 size=N/A time=00:23:26.02 bitrate=N/A speed=15.2x    frame=33881 fps=365 q=-0.0 size=N/A time=00:23:33.12 bitrate=N/A speed=15.2x    frame=34045 fps=365 q=-0.0 size=N/A time=00:23:39.96 bitrate=N/A speed=15.2x    frame=34224 fps=364 q=-0.0 size=N/A time=00:23:47.42 bitrate=N/A speed=15.2x    [Parsed_psnr_16 @ 000001f84e187100] PSNR y:48.469907 u:50.406794 v:50.545152 average:49.041304 min:30.173474 max:78.756986
[out#0/null @ 000001f8379d3a00] video:14731KiB audio:268116KiB subtitle:0KiB other streams:0KiB global headers:0KiB muxing overhead: unknown
frame=34284 fps=365 q=-0.0 Lsize=N/A time=00:23:49.92 bitrate=N/A speed=15.2x    
